<?xml version="1.0" encoding="UTF-8" standalone="no"?>
<svg
   xmlns:dc="http://purl.org/dc/elements/1.1/"
   xmlns:cc="http://creativecommons.org/ns#"
   xmlns:rdf="http://www.w3.org/1999/02/22-rdf-syntax-ns#"
   xmlns:svg="http://www.w3.org/2000/svg"
   xmlns="http://www.w3.org/2000/svg"
   xmlns:sodipodi="http://sodipodi.sourceforge.net/DTD/sodipodi-0.dtd"
   xmlns:inkscape="http://www.inkscape.org/namespaces/inkscape"
   inkscape:version="1.0 (4035a4fb49, 2020-05-01)"
   height="130.97279"
   width="574.51001"
   sodipodi:docname="logo-text.svg"
   version="1.1"
   viewBox="0 0 574.51 130.97279"
   data-name="Layer 1"
   id="Layer_1">
  <metadata
     id="metadata105">
    <rdf:RDF>
      <cc:Work
         rdf:about="">
        <dc:format>image/svg+xml</dc:format>
        <dc:type
           rdf:resource="http://purl.org/dc/dcmitype/StillImage" />
        <dc:title>Logo_Websiteversion22-06-2020_2</dc:title>
      </cc:Work>
    </rdf:RDF>
  </metadata>
  <sodipodi:namedview
     inkscape:current-layer="Layer_1"
     inkscape:window-maximized="0"
     inkscape:window-y="0"
     inkscape:window-x="2560"
     inkscape:cy="64.980612"
     inkscape:cx="129.89831"
     inkscape:zoom="1.3869424"
     fit-margin-bottom="10"
     fit-margin-right="10"
     fit-margin-left="10"
     fit-margin-top="10"
     showgrid="false"
     id="namedview103"
     inkscape:window-height="1440"
     inkscape:window-width="2560"
     inkscape:pageshadow="2"
     inkscape:pageopacity="0"
     guidetolerance="10"
     gridtolerance="10"
     objecttolerance="10"
     borderopacity="1"
     bordercolor="#666666"
     pagecolor="#ffffff" />
  <defs
     id="defs4">
    <style
       id="style2">.cls-1{fill:#e61d33;}.cls-2{fill:#1a8140;}.cls-3,.cls-6{fill:#fff;}.cls-4{fill:none;stroke:#58b747;stroke-width:3px;}.cls-4,.cls-6{stroke-miterlimit:10;}.cls-5{fill:#fdfeff;}.cls-6{stroke:#1a8140;}</style>
  </defs>
  <title
     id="title6">Logo_Websiteversion22-06-2020_2</title>
  <path
     style="fill:#ffffff"
     id="path12"
     d="M 48.35,34.760612 Q 56.35,40.760612 56.35,56.610612 56.35,72.240612 48.57,78.610612 40.79,84.980612 28.38,84.970612 H 11.52 V 28.810612 H 27.16 Q 40.36,28.810612 48.35,34.760612 Z M 24.81,38.450612 V 75.330612 H 29.18 Q 35.75,75.330612 39.18,71.230612 42.61,67.130612 42.59,56.610612 42.59,49.390612 40.89,45.420612 A 10.45,10.45 0 0 0 36.27,39.950612 15.69,15.69 0 0 0 29.05,38.450612 Z"
     class="cls-3" />
  <path
     style="fill:#ffffff"
     id="path14"
     d="M 77.57,28.810612 V 84.970612 H 64.28 V 28.810612 Z"
     class="cls-3" />
  <path
     style="fill:#ffffff"
     id="path16"
     d="M 122.47,28.810612 121.09,38.270612 H 101.32 V 51.740612 H 118.58 V 61.060612 H 101.32 V 75.410612 H 122.47 V 84.970612 H 88.03 V 28.810612 Z"
     class="cls-3" />
  <path
     style="fill:#ffffff"
     id="path18"
     d="M 149.87,84.970612 V 28.810612 H 183.34 L 181.96,38.270612 H 163.16 V 53.200612 H 179.53 V 62.680612 H 163.16 V 84.970612 Z"
     class="cls-3" />
  <path
     style="fill:#ffffff"
     id="path20"
     d="M 229.17,35.130612 Q 235.86,42.830612 235.86,56.850612 A 37.65,37.65 0 0 1 232.86,72.650612 22.75,22.75 0 0 1 224.11,82.830612 28,28 0 0 1 196.99,82.830612 22.58,22.58 0 0 1 188.28,72.730612 38,38 0 0 1 185.28,56.810612 37.62,37.62 0 0 1 188.28,41.090612 22.75,22.75 0 0 1 196.99,30.910612 25.17,25.17 0 0 1 210.53,27.390612 Q 222.49,27.430612 229.17,35.130612 Z M 205.69,11.870612 A 6.36,6.36 0 0 1 205.69,20.940612 6.74,6.74 0 0 1 196.37,20.940612 6.34,6.34 0 0 1 196.37,11.870612 6.74,6.74 0 0 1 205.69,11.870612 Z M 201.96,41.810612 Q 199.17,46.480612 199.16,56.810612 199.15,67.140612 202,71.880612 A 10.17,10.17 0 0 0 219.14,71.880612 Q 221.94,67.230612 221.94,56.770612 221.94,46.310612 219.08,41.770612 A 9.4,9.4 0 0 0 210.49,37.150612 9.3,9.3 0 0 0 201.94,41.810612 Z M 224.43,11.870612 A 6.46,6.46 0 0 1 224.43,20.940612 6.69,6.69 0 0 1 215.15,20.940612 6.36,6.36 0 0 1 215.15,11.870612 6.69,6.69 0 0 1 224.43,11.870612 Z"
     class="cls-3" />
  <path
     style="fill:#ffffff"
     id="path22"
     d="M 280.69,34.760612 Q 288.69,40.760612 288.69,56.610612 288.69,72.240612 280.91,78.610612 273.13,84.980612 260.69,84.970612 H 243.8 V 28.810612 H 259.44 Q 272.69,28.810612 280.69,34.760612 Z M 257.09,38.450612 V 75.330612 H 261.47 Q 268.04,75.330612 271.47,71.230612 274.9,67.130612 274.87,56.610612 274.87,49.390612 273.17,45.420612 A 10.37,10.37 0 0 0 268.55,39.950612 15.64,15.64 0 0 0 261.34,38.450612 Z"
     class="cls-3" />
  <path
     style="fill:#ffffff"
     id="path24"
     d="M 331.01,28.810612 329.63,38.270612 H 309.86 V 51.740612 H 327.12 V 61.060612 H 309.86 V 75.410612 H 331.01 V 84.970612 H 296.56 V 28.810612 Z"
     class="cls-3" />
  <path
     style="fill:#ffffff"
     id="path26"
     d="M 357.69,63.500612 H 352.49 V 84.970612 H 339.2 V 28.810612 H 357.59 Q 369.1,28.810612 374.9,33.020612 380.7,37.230612 380.69,45.910612 A 15,15 0 0 1 378.1,54.910612 19.67,19.67 0 0 1 369.91,61.030612 L 384.18,84.940612 H 369.18 Z M 352.51,54.340612 H 358.1 Q 362.56,54.340612 364.79,52.340612 C 366.27,50.990612 367.01,48.850612 367.01,45.940612 367.01,43.240612 366.22,41.260612 364.62,40.020612 363.02,38.780612 360.62,38.160612 357.29,38.160612 H 352.49 Z"
     class="cls-3" />
  <path
     style="fill:#ffffff"
     id="path28"
     d="M 418.79,84.970612 415.87,72.900612 H 399.49 L 396.69,84.970612 H 382.88 L 399.82,28.810612 H 415.95 L 432.89,84.970612 Z M 401.76,63.270612 H 413.6 L 407.69,38.450612 Z"
     class="cls-3" />
  <path
     style="fill:#ffffff"
     id="path30"
     d="M 450.31,28.810612 V 74.440612 H 472.2 L 470.82,84.970612 H 437.02 V 28.810612 Z"
     class="cls-3" />
  <path
     style="fill:#ffffff"
     id="path32"
     d="M 513.04,28.810612 511.69,38.270612 H 491.89 V 51.740612 H 509.15 V 61.060612 H 491.89 V 75.410612 H 513.04 V 84.970612 H 478.6 V 28.810612 Z"
     class="cls-3" />
  <path
     style="fill:#ffffff"
     id="path34"
     d="M 564.51,84.970612 H 547.57 L 531.36,41.450612 Q 532.17,47.860612 532.62,52.760612 533.07,57.660612 533.06,64.390612 V 84.970612 H 521.23 V 28.810612 H 537.76 L 554.38,72.410612 A 132,132 0 0 1 552.59,51.500612 V 28.810612 H 564.51 Z"
     class="cls-3" />
  <path
     style="fill:#ffffff"
     id="path36"
     d="M 33.28,99.900612 29.08,120.57061 H 25.42 L 21.61,103.27061 17.77,120.58061 H 14.2 L 10,99.910612 H 12.79 L 16.12,118.09061 20.12,99.910612 H 23.12 L 27.2,118.09061 30.69,99.900612 Z"
     class="cls-3" />
  <path
     style="fill:#ffffff"
     id="path38"
     d="M 39.69,97.710612 A 1.83,1.83 0 0 1 40.23,99.060612 1.79,1.79 0 0 1 39.69,100.40061 1.93,1.93 0 0 1 38.28,100.92061 1.89,1.89 0 0 1 36.9,100.40061 1.79,1.79 0 0 1 36.36,99.060612 1.83,1.83 0 0 1 36.9,97.710612 1.87,1.87 0 0 1 38.28,97.170612 1.91,1.91 0 0 1 39.69,97.710612 Z M 39.69,104.71061 V 120.57061 H 36.93 V 104.76061 Z"
     class="cls-3" />
  <path
     style="fill:#ffffff"
     id="path40"
     d="M 53.77,104.58061 53.26,107.28061 A 5.69,5.69 0 0 0 51.88,107.10061 2.93,2.93 0 0 0 49.51,108.18061 8,8 0 0 0 48.1,111.54061 V 120.54061 H 45.34 V 104.76061 H 47.69 L 47.96,107.97061 A 6,6 0 0 1 49.69,105.27061 3.82,3.82 0 0 1 52.21,104.37061 6.42,6.42 0 0 1 53.77,104.58061 Z"
     class="cls-3" />
  <path
     style="fill:#ffffff"
     id="path42"
     d="M 65.6,120.02061 A 3.55,3.55 0 0 1 64.72,117.45061 V 98.400612 L 67.48,98.070612 V 117.39061 A 1.62,1.62 0 0 0 67.7,118.39061 0.91,0.91 0 0 0 68.47,118.69061 2.73,2.73 0 0 0 69.47,118.51061 L 70.19,120.43061 A 4.5,4.5 0 0 1 68,120.97061 3.21,3.21 0 0 1 65.6,120.02061 Z"
     class="cls-3" />
  <path
     style="fill:#ffffff"
     id="path44"
     d="M 85.39,113.61061 H 75.31 A 6.16,6.16 0 0 0 76.63,117.45061 3.83,3.83 0 0 0 79.57,118.68061 6.42,6.42 0 0 0 81.67,118.35061 8.47,8.47 0 0 0 83.67,117.30061 L 84.87,118.95061 A 8.74,8.74 0 0 1 79.35,120.95061 6.41,6.41 0 0 1 74.2,118.79061 8.85,8.85 0 0 1 72.36,112.85061 11.23,11.23 0 0 1 73.15,108.49061 6.86,6.86 0 0 1 75.43,105.49061 5.8,5.8 0 0 1 78.93,104.41061 5.86,5.86 0 0 1 83.76,106.48061 8.85,8.85 0 0 1 85.44,112.21061 Q 85.45,112.89061 85.39,113.61061 Z M 82.69,111.39061 A 5.84,5.84 0 0 0 81.76,107.82061 3.28,3.28 0 0 0 78.97,106.59061 Q 75.58,106.59061 75.28,111.59061 H 82.69 Z"
     class="cls-3" />
  <path
     style="fill:#ffffff"
     id="path46"
     d="M 101.38,106.58061 A 10.12,10.12 0 0 1 102.97,112.65061 11.64,11.64 0 0 1 102.22,116.99061 6.49,6.49 0 0 1 100.06,119.90061 5.42,5.42 0 0 1 96.76,120.90061 5.23,5.23 0 0 1 92.56,118.80061 L 92.29,120.54061 H 89.86 V 98.400612 L 92.62,98.070612 V 106.74061 A 5.29,5.29 0 0 1 97.09,104.40061 5,5 0 0 1 101.38,106.58061 Z M 98.96,117.27061 A 8.16,8.16 0 0 0 99.96,112.66061 8.52,8.52 0 0 0 98.96,108.03061 3.1,3.1 0 0 0 96.23,106.60061 Q 94.13,106.60061 92.54,109.06061 V 116.62061 A 4.89,4.89 0 0 0 94.08,118.18061 3.62,3.62 0 0 0 96.02,118.75061 3.29,3.29 0 0 0 98.96,117.27061 Z"
     class="cls-3" />
  <path
     style="fill:#ffffff"
     id="path48"
     d="M 119.56,113.61061 H 109.48 A 6.16,6.16 0 0 0 110.8,117.45061 3.83,3.83 0 0 0 113.74,118.68061 6.42,6.42 0 0 0 115.84,118.35061 8.47,8.47 0 0 0 117.84,117.30061 L 119.04,118.95061 A 8.74,8.74 0 0 1 113.52,120.95061 6.41,6.41 0 0 1 108.37,118.79061 8.85,8.85 0 0 1 106.53,112.85061 11.23,11.23 0 0 1 107.32,108.49061 6.86,6.86 0 0 1 109.6,105.49061 5.8,5.8 0 0 1 113.1,104.41061 5.86,5.86 0 0 1 117.93,106.48061 8.85,8.85 0 0 1 119.61,112.21061 Q 119.62,112.89061 119.56,113.61061 Z M 116.89,111.39061 A 5.84,5.84 0 0 0 115.96,107.82061 3.28,3.28 0 0 0 113.17,106.59061 Q 109.78,106.59061 109.48,111.59061 H 116.89 Z"
     class="cls-3" />
  <path
     style="fill:#ffffff"
     id="path50"
     d="M 134.84,105.69061 A 5,5 0 0 1 136.06,109.23061 V 120.57061 H 133.3 V 109.57061 A 3.51,3.51 0 0 0 132.69,107.27061 2.39,2.39 0 0 0 130.83,106.58061 3.6,3.6 0 0 0 128.61,107.30061 7.49,7.49 0 0 0 126.81,109.37061 V 120.57061 H 124.05 V 104.76061 H 126.42 L 126.66,107.10061 A 6.23,6.23 0 0 1 128.74,105.10061 5.4,5.4 0 0 1 131.49,104.38061 4.4,4.4 0 0 1 134.84,105.69061 Z"
     class="cls-3" />
  <path
     style="fill:#ffffff"
     id="path52"
     d="M 161.8,98.400612 V 120.57061 H 159.37 L 159.1,118.38061 A 5.74,5.74 0 0 1 157.15,120.26061 5.45,5.45 0 0 1 150.15,118.71061 10.13,10.13 0 0 1 148.58,112.71061 11.64,11.64 0 0 1 149.33,108.39061 6.67,6.67 0 0 1 151.49,105.39061 5.33,5.33 0 0 1 154.79,104.32061 5.67,5.67 0 0 1 159.05,106.32061 V 98.070612 Z M 157.3,118.16061 A 6.77,6.77 0 0 0 159.04,116.40061 V 108.66061 A 6,6 0 0 0 157.37,107.12061 3.82,3.82 0 0 0 155.37,106.59061 3.21,3.21 0 0 0 152.53,108.12061 8.38,8.38 0 0 0 151.53,112.68061 8.83,8.83 0 0 0 152.46,117.24061 3,3 0 0 0 155.13,118.74061 3.87,3.87 0 0 0 157.3,118.16061 Z"
     class="cls-3" />
  <path
     style="fill:#ffffff"
     id="path54"
     d="M 170.26,97.710612 A 1.83,1.83 0 0 1 170.8,99.060612 1.79,1.79 0 0 1 170.26,100.40061 1.93,1.93 0 0 1 168.85,100.92061 1.89,1.89 0 0 1 167.47,100.40061 1.79,1.79 0 0 1 166.93,99.060612 1.83,1.83 0 0 1 167.47,97.710612 1.87,1.87 0 0 1 168.85,97.170612 1.91,1.91 0 0 1 170.26,97.710612 Z M 170.26,104.71061 V 120.57061 H 167.5 V 104.76061 Z"
     class="cls-3" />
  <path
     style="fill:#ffffff"
     id="path56"
     d="M 187.84,113.61061 H 177.76 A 6.16,6.16 0 0 0 179.08,117.45061 3.83,3.83 0 0 0 182.02,118.68061 6.42,6.42 0 0 0 184.12,118.35061 8.47,8.47 0 0 0 186.12,117.30061 L 187.32,118.95061 A 8.74,8.74 0 0 1 181.8,120.95061 6.41,6.41 0 0 1 176.69,118.77061 8.85,8.85 0 0 1 174.85,112.83061 11.23,11.23 0 0 1 175.64,108.47061 6.86,6.86 0 0 1 177.92,105.47061 5.8,5.8 0 0 1 181.42,104.39061 5.86,5.86 0 0 1 186.25,106.46061 8.85,8.85 0 0 1 187.93,112.19061 Q 187.9,112.89061 187.84,113.61061 Z M 185.17,111.39061 A 5.84,5.84 0 0 0 184.24,107.82061 3.28,3.28 0 0 0 181.45,106.59061 Q 178.06,106.59061 177.76,111.59061 H 185.17 Z"
     class="cls-3" />
  <path
     style="fill:#ffffff"
     id="path58"
     d="M 211.69,99.900612 V 102.21061 L 201.49,118.14061 H 211.69 L 211.36,120.57061 H 198.31 V 118.27061 L 208.63,102.27061 H 199.39 V 99.870612 Z"
     class="cls-3" />
  <path
     style="fill:#ffffff"
     id="path60"
     d="M 227.08,120.57061 H 224.69 L 224.48,118.11061 A 6,6 0 0 1 222.41,120.26061 5.62,5.62 0 0 1 219.56,120.93061 4.2,4.2 0 0 1 216.32,119.67061 5.05,5.05 0 0 1 215.15,116.10061 V 104.76061 H 217.91 V 115.76061 A 3.6,3.6 0 0 0 218.48,118.06061 2.31,2.31 0 0 0 220.34,118.73061 Q 222.65,118.73061 224.34,116.00061 V 104.76061 H 227.1 Z"
     class="cls-3" />
  <path
     style="fill:#ffffff"
     id="path62"
     d="M 235.54,98.070612 V 120.57061 H 232.78 V 98.400612 Z M 244.63,104.76061 238.81,111.76061 245.29,120.58061 H 241.99 L 235.69,111.93061 241.51,104.76061 Z"
     class="cls-3" />
  <path
     style="fill:#ffffff"
     id="path64"
     d="M 259.69,120.57061 H 257.32 L 257.11,118.11061 A 6,6 0 0 1 255.04,120.26061 5.62,5.62 0 0 1 252.19,120.93061 4.2,4.2 0 0 1 248.95,119.67061 5.05,5.05 0 0 1 247.78,116.10061 V 104.76061 H 250.54 V 115.76061 A 3.6,3.6 0 0 0 251.11,118.06061 2.31,2.31 0 0 0 252.97,118.73061 Q 255.28,118.73061 256.97,116.00061 V 104.76061 H 259.69 Z"
     class="cls-3" />
  <path
     style="fill:#ffffff"
     id="path66"
     d="M 276.2,105.69061 A 5,5 0 0 1 277.41,109.23061 V 120.57061 H 274.69 V 109.57061 A 3.51,3.51 0 0 0 274.06,107.20061 2.4,2.4 0 0 0 272.19,106.51061 3.57,3.57 0 0 0 269.98,107.23061 7.18,7.18 0 0 0 268.18,109.30061 V 120.57061 H 265.39 V 104.76061 H 267.76 L 267.99,107.10061 A 6.26,6.26 0 0 1 270.08,105.10061 5.4,5.4 0 0 1 272.83,104.38061 4.4,4.4 0 0 1 276.2,105.69061 Z"
     class="cls-3" />
  <path
     style="fill:#ffffff"
     id="path68"
     d="M 286.54,100.85061 A 2.34,2.34 0 0 0 285.99,102.57061 V 104.76061 H 289.83 L 289.54,106.89061 H 285.99 V 120.57061 H 283.24 V 106.89061 H 280.41 V 104.76061 H 283.24 V 102.60061 A 4.32,4.32 0 0 1 284.54,99.320612 5.06,5.06 0 0 1 288.18,98.070612 8.7,8.7 0 0 1 290.12,98.270612 11,11 0 0 1 291.96,98.880612 L 291.09,100.88061 A 6.7,6.7 0 0 0 288.33,100.28061 2.4,2.4 0 0 0 286.54,100.85061 Z"
     class="cls-3" />
  <path
     style="fill:#ffffff"
     id="path70"
     d="M 300.99,119.85061 A 6.07,6.07 0 0 1 297.45,120.93061 4.16,4.16 0 0 1 294.32,119.78061 4.62,4.62 0 0 1 293.19,116.43061 V 106.89061 H 290.43 V 104.76061 H 293.19 V 101.19061 L 295.95,100.86061 V 104.76061 H 299.69 L 299.4,106.89061 H 295.94 V 116.27061 A 2.92,2.92 0 0 0 296.38,118.06061 1.73,1.73 0 0 0 297.83,118.61061 4.53,4.53 0 0 0 299.93,117.98061 Z"
     class="cls-3" />
  <path
     style="fill:#ffffff"
     id="path72"
     d="M 306.18,117.36061 A 2,2 0 0 1 306.78,118.83061 2.06,2.06 0 0 1 306.18,120.32061 2,2 0 0 1 304.68,120.93061 2,2 0 0 1 303.21,120.32061 2.06,2.06 0 0 1 302.61,118.83061 2,2 0 0 1 304.68,116.76061 2,2 0 0 1 306.18,117.36061 Z"
     class="cls-3" />
</svg>
